<svg width="208" height="38" viewBox="0 0 208 38" fill="none" xmlns="http://www.w3.org/2000/svg">
<path d="M3.64802 7.53605C3.55202 6.86405 3.36801 6.36806 3.09601 6.04806C2.824 5.72806 2.48 5.51206 2.06399 5.40007C1.64799 5.28808 1.16799 5.23208 0.624004 5.23208H4.17233e-06L0.528011 2.68802H16.3683L15.8403 5.23208H14.7363C13.7123 5.23208 12.8963 5.36007 12.2883 5.61605C11.6803 5.87203 11.3763 6.38402 11.3763 7.15202C11.3763 7.40802 11.3843 7.68802 11.4003 7.99202C11.4163 8.29602 11.4403 8.56002 11.4723 8.78402L13.0083 21.4557C13.0723 21.9997 13.1283 22.6397 13.1763 23.3757C13.2243 24.1117 13.2643 24.8637 13.2963 25.6317C13.3283 26.3997 13.3523 27.1197 13.3683 27.7917C13.3843 28.4637 13.3923 29.0237 13.3923 29.4717C13.7762 28.6078 14.1762 27.6798 14.5923 26.6877C15.0083 25.6957 15.3443 24.9596 15.6004 24.4795L24.2401 8.97601C24.5601 8.43201 24.7841 7.95201 24.9121 7.53602C25.0401 7.12003 25.1041 6.75204 25.1041 6.43205C25.1041 5.95206 24.8721 5.63206 24.4081 5.47207C23.9441 5.31208 23.2481 5.23208 22.3201 5.23208H21.2161L21.6961 2.68802H34.2242L33.6961 5.23208H32.5441C31.9361 5.23208 31.4241 5.30408 31.0081 5.44807C30.5921 5.59207 30.2001 5.89606 29.8321 6.36005C29.4641 6.82404 29.0081 7.52003 28.4642 8.44802L12.4802 36.96H7.68001L3.64802 7.53605ZM35.9041 37.44C34.0801 37.44 32.672 37 31.68 36.12C30.688 35.24 30.192 34.032 30.192 32.496C30.192 32.048 30.216 31.536 30.264 30.96C30.3119 30.3841 30.3999 29.7441 30.5279 29.0401C30.6559 28.3361 30.7999 27.5841 30.96 26.784L32.8319 17.8562C32.9279 17.4401 33.0079 17.0241 33.0719 16.6081C33.1359 16.1921 33.1679 15.9201 33.1679 15.792C33.1679 14.9281 32.976 14.3761 32.592 14.1361C32.208 13.8961 31.552 13.7761 30.624 13.7761H29.76L30.24 11.232H41.5683L38.2563 26.832C38.1283 27.4081 38.0162 27.9601 37.9202 28.4881C37.8242 29.0161 37.7443 29.528 37.6803 30.024C37.6163 30.52 37.5843 30.992 37.5843 31.44C37.5843 32.144 37.7363 32.6799 38.0403 33.0479C38.3443 33.4159 38.7523 33.5999 39.2643 33.5999C39.7763 33.5999 40.2403 33.5039 40.6562 33.3119C41.0722 33.1199 41.5522 32.848 42.0962 32.496L43.2482 34.128C42.4802 34.928 41.5042 35.68 40.3202 36.384C39.1362 37.088 37.6642 37.44 35.9041 37.44ZM38.256 6.91207C37.2 6.91207 36.312 6.66407 35.592 6.16806C34.8719 5.67206 34.5119 4.92805 34.5119 3.93604C34.5119 3.00801 34.7199 2.25599 35.136 1.67998C35.552 1.10397 36.096 0.679968 36.768 0.40797C37.44 0.135971 38.1761 -2.86102e-05 38.9761 -2.86102e-05C40.0001 -2.86102e-05 40.8962 0.231975 41.6642 0.695981C42.4322 1.15999 42.8162 1.936 42.8162 3.02402C42.8162 3.88802 42.5922 4.60803 42.1442 5.18404C41.6962 5.76005 41.1282 6.19205 40.4401 6.48006C39.7521 6.76807 39.0241 6.91207 38.256 6.91207ZM54.1442 37.44C52.8322 37.44 51.6402 37.264 50.5682 36.912C49.4962 36.56 48.6562 36.16 48.0482 35.712L45.3121 37.104H42.624L49.0079 7.10416C49.1039 6.68811 49.1839 6.27128 49.248 5.85367C49.312 5.43607 49.344 5.16964 49.344 5.0544C49.344 4.19045 49.152 3.63608 48.768 3.39128C48.384 3.14648 47.728 3.02408 46.8 3.02408H45.696L46.176 0.480022H57.7922L55.8723 9.59984C55.7763 10.0478 55.6083 10.6559 55.3683 11.4239C55.1283 12.1919 54.8642 12.9919 54.5762 13.8239C54.2882 14.656 54.0242 15.424 53.7842 16.128C53.5442 16.832 53.3602 17.36 53.2322 17.712H53.4722C54.2402 16.144 55.0562 14.848 55.9202 13.824C56.7842 12.8 57.7602 12.032 58.8482 11.52C59.9362 11.008 61.1887 10.752 62.6057 10.752C64.6447 10.752 66.3203 11.488 67.6323 12.96C68.9443 14.432 69.6003 16.592 69.6003 19.44C69.6003 21.008 69.3756 22.624 68.9261 24.288C68.4766 25.952 67.8196 27.568 66.9551 29.136C66.0907 30.704 65.0275 32.112 63.7654 33.36C62.5033 34.608 61.0683 35.6 59.4605 36.336C57.8526 37.072 56.0805 37.44 54.1442 37.44ZM53.9042 34.3679C55.0242 34.3679 56.0322 34.0239 56.9281 33.3359C57.8241 32.6479 58.6081 31.7512 59.2801 30.6458C59.9521 29.5403 60.5121 28.3403 60.9601 27.0458C61.4081 25.7513 61.7441 24.4676 61.9681 23.1948C62.1921 21.922 62.3041 20.7825 62.3041 19.7761C62.3041 17.8856 62.0546 16.549 61.5558 15.7663C61.0569 14.9835 60.4569 14.5921 59.7558 14.5921C59.0547 14.5921 58.3773 14.8324 57.7235 15.3131C57.0698 15.7938 56.4637 16.4201 55.9053 17.192C55.3469 17.964 54.8498 18.7796 54.414 19.639C53.9781 20.4984 53.6162 21.312 53.3282 22.08C53.0402 22.848 52.8482 23.472 52.7522 23.952L50.7843 33.024C51.1309 33.4222 51.5709 33.7457 52.1042 33.9946C52.6375 34.2435 53.2375 34.3679 53.9042 34.3679ZM81.737 37.44C79.7897 37.44 78.0081 37.08 76.3921 36.36C74.776 35.64 73.48 34.544 72.504 33.072C71.528 31.6 71.04 29.7387 71.04 27.4881C71.04 26.0734 71.264 24.5864 71.712 23.0271C72.16 21.4677 72.824 19.96 73.704 18.504C74.584 17.048 75.68 15.736 76.9921 14.568C78.3041 13.4 79.8237 12.472 81.551 11.784C83.2783 11.096 85.1965 10.752 87.3056 10.752C89.5966 10.752 91.3784 11.2458 92.6512 12.2334C93.9239 13.2211 94.5603 14.6137 94.5603 16.4114C94.5603 18.1425 93.9443 19.744 92.7123 21.216C91.4803 22.688 89.787 23.8801 87.6325 24.792C85.478 25.7041 83.0193 26.1601 80.2562 26.1601H78.4854C78.4517 26.49 78.4264 26.8125 78.4095 27.1275C78.3927 27.4425 78.3842 27.728 78.3842 27.984C78.3842 29.84 78.8162 31.272 79.6802 32.28C80.5442 33.288 81.8549 33.792 83.6122 33.792C85.1742 33.792 86.5654 33.3839 87.7857 32.5679C89.0061 31.7519 89.9522 30.8639 90.6242 29.9039C91.0402 30.4159 91.2482 31.1039 91.2482 31.9679C91.2482 32.736 90.9122 33.544 90.2402 34.392C89.5682 35.24 88.5341 35.96 87.138 36.552C85.7418 37.144 83.9415 37.44 81.737 37.44ZM79.2266 23.424C80.841 23.424 82.2801 23.1424 83.544 22.5792C84.8078 22.016 85.8078 21.2361 86.5439 20.2397C87.28 19.2432 87.6481 18.0807 87.6481 16.7521C87.6481 15.7601 87.4401 14.9921 87.0241 14.4481C86.6081 13.9041 86.0241 13.6321 85.2721 13.6321C84.5201 13.6321 83.7886 13.9201 83.0775 14.4961C82.3664 15.0721 81.7264 15.8401 81.1575 16.8001C80.5886 17.76 80.1042 18.816 79.7042 19.968C79.3042 21.12 79.0082 22.272 78.8162 23.424H79.2266ZM91.296 36.96L91.824 34.416H92.448C93.12 34.416 93.76 34.352 94.368 34.224C94.976 34.096 95.504 33.824 95.952 33.408C96.4 32.992 96.704 32.368 96.864 31.536L101.52 9.6479C101.648 9.03993 101.752 8.53595 101.832 8.13596C101.912 7.73597 101.952 7.35999 101.952 7.00803C101.952 6.30404 101.64 5.83206 101.016 5.59206C100.392 5.35207 99.584 5.23208 98.592 5.23208H97.968L98.496 2.68802H113.376C117.088 2.68802 119.888 3.29602 121.776 4.51203C123.664 5.72803 124.608 7.52004 124.608 9.88806C124.608 11.648 124.264 13.128 123.576 14.328C122.888 15.528 121.952 16.488 120.768 17.208C119.584 17.928 118.256 18.464 116.784 18.816L116.736 19.008C118.464 19.328 119.872 20.072 120.96 21.24C122.048 22.408 122.592 24.0001 122.592 26.016C122.592 28.352 122.072 30.336 121.032 31.968C119.992 33.6 118.448 34.84 116.4 35.688C114.352 36.536 111.808 36.96 108.768 36.96H91.296ZM107.184 34.032C109.904 34.032 111.832 33.32 112.968 31.896C114.104 30.472 114.672 28.4 114.672 25.68C114.672 23.952 114.272 22.656 113.472 21.792C112.672 20.928 111.44 20.496 109.776 20.496H106.752L103.872 34.032H107.184ZM110.064 17.52C111.6 17.52 112.84 17.256 113.784 16.728C114.728 16.2 115.416 15.432 115.848 14.424C116.28 13.416 116.496 12.176 116.496 10.704C116.496 9.00799 116.112 7.73602 115.344 6.88804C114.576 6.04006 113.456 5.61608 111.984 5.61608H109.872L107.376 17.52H110.064ZM134.352 37.44C131.344 37.44 128.896 36.608 127.008 34.944C125.12 33.28 124.176 30.752 124.176 27.36C124.176 25.92 124.376 24.432 124.776 22.896C125.176 21.36 125.792 19.864 126.624 18.408C127.456 16.952 128.496 15.648 129.744 14.496C130.992 13.344 132.464 12.432 134.16 11.76C135.856 11.088 137.776 10.752 139.92 10.752C141.776 10.752 143.456 11.096 144.96 11.784C146.464 12.472 147.672 13.552 148.584 15.024C149.496 16.496 149.952 18.432 149.952 20.832C149.952 22.208 149.76 23.664 149.376 25.2C148.992 26.736 148.4 28.224 147.6 29.664C146.8 31.104 145.776 32.408 144.528 33.576C143.28 34.744 141.816 35.68 140.136 36.384C138.456 37.088 136.528 37.44 134.352 37.44ZM135.216 33.9839C136.24 33.9839 137.152 33.6479 137.952 32.9759C138.752 32.3039 139.448 31.4079 140.04 30.2879C140.632 29.1679 141.12 27.9519 141.504 26.6399C141.888 25.3279 142.176 24.0319 142.368 22.7519C142.56 21.4719 142.656 20.3199 142.656 19.296C142.656 17.408 142.328 16.0481 141.672 15.2161C141.016 14.3841 140.128 13.9681 139.008 13.9681C138.016 13.9681 137.128 14.2961 136.344 14.9521C135.56 15.6081 134.864 16.4721 134.256 17.5441C133.648 18.6161 133.144 19.7921 132.744 21.0721C132.344 22.3521 132.04 23.6401 131.832 24.9361C131.624 26.2321 131.52 27.424 131.52 28.512C131.52 29.824 131.664 30.88 131.952 31.68C132.24 32.4799 132.664 33.0639 133.224 33.4319C133.784 33.7999 134.448 33.9839 135.216 33.9839ZM161.616 37.44C158.608 37.44 156.16 36.608 154.272 34.944C152.384 33.28 151.44 30.752 151.44 27.36C151.44 25.92 151.64 24.432 152.04 22.896C152.44 21.36 153.056 19.864 153.888 18.408C154.72 16.952 155.76 15.648 157.008 14.496C158.256 13.344 159.728 12.432 161.424 11.76C163.12 11.088 165.04 10.752 167.184 10.752C169.04 10.752 170.72 11.096 172.224 11.784C173.728 12.472 174.936 13.552 175.848 15.024C176.76 16.496 177.216 18.432 177.216 20.832C177.216 22.208 177.024 23.664 176.64 25.2C176.256 26.736 175.664 28.224 174.864 29.664C174.064 31.104 173.04 32.408 171.792 33.576C170.544 34.744 169.08 35.68 167.4 36.384C165.72 37.088 163.792 37.44 161.616 37.44ZM162.48 33.9839C163.504 33.9839 164.416 33.6479 165.216 32.9759C166.016 32.3039 166.712 31.4079 167.304 30.2879C167.896 29.1679 168.384 27.9519 168.768 26.6399C169.152 25.3279 169.44 24.0319 169.632 22.7519C169.824 21.4719 169.92 20.3199 169.92 19.296C169.92 17.408 169.592 16.0481 168.936 15.2161C168.28 14.3841 167.392 13.9681 166.272 13.9681C165.28 13.9681 164.392 14.2961 163.608 14.9521C162.824 15.6081 162.128 16.4721 161.52 17.5441C160.912 18.6161 160.408 19.7921 160.008 21.0721C159.608 22.3521 159.304 23.6401 159.096 24.9361C158.888 26.2321 158.784 27.424 158.784 28.512C158.784 29.824 158.928 30.88 159.216 31.68C159.504 32.4799 159.928 33.0639 160.488 33.4319C161.048 33.7999 161.712 33.9839 162.48 33.9839ZM201.12 36.9601C199.552 36.9601 198.208 36.8081 197.088 36.5041C195.968 36.2001 195.032 35.7121 194.28 35.0401C193.528 34.3681 192.928 33.504 192.48 32.448L189.168 24.5762L192.528 23.8561L187.056 27.408L184.992 36.96H177.792L184.128 7.104C184.224 6.68801 184.304 6.27202 184.368 5.85603C184.432 5.44003 184.464 5.16803 184.464 5.04001C184.464 4.17604 184.272 3.62406 183.888 3.38407C183.504 3.14408 182.848 3.02408 181.92 3.02408H180.912L181.344 0.480022H192.96L190.416 12.1923C190.128 13.4722 189.88 14.6082 189.672 15.6001C189.464 16.5921 189.256 17.5281 189.048 18.408C188.84 19.288 188.624 20.176 188.4 21.072C188.176 21.9679 187.92 22.9439 187.632 23.9999L195.12 17.232C195.632 16.752 196.016 16.36 196.272 16.056C196.528 15.752 196.704 15.4881 196.8 15.2641C196.896 15.0401 196.944 14.8481 196.944 14.6881C196.944 14.4641 196.856 14.2721 196.68 14.1121C196.504 13.9521 196.248 13.8321 195.912 13.7521C195.576 13.6721 195.168 13.6321 194.688 13.6321L195.168 11.232H207.264L206.784 13.6321C206.048 13.6321 205.288 13.7761 204.504 14.0641C203.72 14.352 202.888 14.792 202.008 15.384C201.128 15.976 200.176 16.752 199.152 17.712L192.816 23.5681L194.592 19.68L198.912 29.088C199.616 30.56 200.272 31.68 200.88 32.448C201.488 33.216 202.064 33.736 202.608 34.008C203.152 34.28 203.648 34.416 204.096 34.416L203.568 36.9601H201.12Z" fill="#C0C1FF"/>
</svg>
